<svg xmlns="http://www.w3.org/2000/svg" viewBox="0 0 400 400" role="img">
<title>Baratza Encore ESP — Kvarn Sketch</title>
<defs>
<filter id="wc" x="-20%" y="-20%" width="140%" height="140%">
<feTurbulence type="fractalNoise" baseFrequency="0.9" numOctaves="2" result="n" seed="7"/>
<feDisplacementMap in="SourceGraphic" in2="n" scale="7"/>
</filter>
<filter id="ink" x="-10%" y="-10%" width="120%" height="120%">
<feTurbulence type="fractalNoise" baseFrequency="0.035" numOctaves="2" result="m" seed="11"/>
<feDisplacementMap in="SourceGraphic" in2="m" scale="4"/>
</filter>
</defs>
<rect width="400" height="400" fill="#F7F4EF"/><ellipse cx="180" cy="293" rx="122" ry="41" fill="#C0754D" opacity="0.09" filter="url(#wc)"/><circle cx="105" cy="119" r="28" fill="#C0754D" opacity="0.16" filter="url(#wc)"/><g filter="url(#wc)"><rect x="150" y="118" width="100" height="150" rx="16" fill="#3B2E28" opacity="0.3"/><rect x="172" y="76" width="56" height="42" rx="6" fill="#E7E0D5" opacity="0.4"/><rect x="184" y="292" width="32" height="26" rx="6" fill="#E7E0D5" opacity="0.6"/></g><ellipse cx="200" cy="345" rx="75" ry="10" fill="#3B2E28" opacity="0.12" filter="url(#wc)"/><g filter="url(#ink)" fill="none" stroke="#3B2E28" stroke-width="2.3" stroke-linecap="round" stroke-linejoin="round"><rect x="150" y="118" width="100" height="150" rx="16"/><rect x="172" y="76" width="56" height="42" rx="6"/><path d="M172 90h56"/><path d="M182 268v14h36v-14"/><rect x="184" y="292" width="32" height="26" rx="6"/><path d="M192 240h16" opacity="0.9"/><circle cx="170" cy="244" r="4"/></g><circle cx="269" cy="53" r="2.2" fill="#C0754D" opacity="0.55"/><circle cx="60" cy="294" r="2.8" fill="#C0754D" opacity="0.55"/><circle cx="193" cy="69" r="2.1" fill="#C0754D" opacity="0.46"/><circle cx="340" cy="132" r="1.6" fill="#C0754D" opacity="0.51"/><circle cx="75" cy="124" r="1.6" fill="#C0754D" opacity="0.58"/></svg>