<svg xmlns="http://www.w3.org/2000/svg" viewBox="0 0 400 400" role="img">
<title>Eureka Mignon Specialita — Kvarn Sketch</title>
<defs>
<filter id="wc" x="-20%" y="-20%" width="140%" height="140%">
<feTurbulence type="fractalNoise" baseFrequency="0.9" numOctaves="2" result="n" seed="7"/>
<feDisplacementMap in="SourceGraphic" in2="n" scale="7"/>
</filter>
<filter id="ink" x="-10%" y="-10%" width="120%" height="120%">
<feTurbulence type="fractalNoise" baseFrequency="0.035" numOctaves="2" result="m" seed="11"/>
<feDisplacementMap in="SourceGraphic" in2="m" scale="4"/>
</filter>
</defs>
<rect width="400" height="400" fill="#F7F4EF"/><ellipse cx="222" cy="282" rx="147" ry="43" fill="#C0754D" opacity="0.09" filter="url(#wc)"/><circle cx="84" cy="129" r="37" fill="#C0754D" opacity="0.16" filter="url(#wc)"/><g filter="url(#wc)"><rect x="150" y="118" width="100" height="150" rx="16" fill="#3B2E28" opacity="0.32"/><rect x="172" y="76" width="56" height="42" rx="6" fill="#E7E0D5" opacity="0.4"/><rect x="160" y="170" width="30" height="20" rx="4" fill="#96A694" opacity="0.45"/><rect x="184" y="292" width="32" height="26" rx="6" fill="#E7E0D5" opacity="0.6"/></g><ellipse cx="200" cy="345" rx="75" ry="10" fill="#3B2E28" opacity="0.12" filter="url(#wc)"/><g filter="url(#ink)" fill="none" stroke="#3B2E28" stroke-width="2.3" stroke-linecap="round" stroke-linejoin="round"><rect x="150" y="118" width="100" height="150" rx="16"/><rect x="172" y="76" width="56" height="42" rx="6"/><path d="M172 90h56"/><rect x="160" y="170" width="30" height="20" rx="4"/><path d="M182 268v14h36v-14"/><rect x="184" y="292" width="32" height="26" rx="6"/><path d="M192 240h16" opacity="0.9"/><circle cx="170" cy="244" r="4"/></g><circle cx="347" cy="220" r="1.4" fill="#C0754D" opacity="0.7"/><circle cx="340" cy="262" r="2.0" fill="#C0754D" opacity="0.59"/><circle cx="229" cy="342" r="2.7" fill="#C0754D" opacity="0.6"/><circle cx="340" cy="277" r="2.5" fill="#C0754D" opacity="0.5"/><circle cx="154" cy="62" r="1.9" fill="#C0754D" opacity="0.42"/></svg>