<svg xmlns="http://www.w3.org/2000/svg" viewBox="0 0 400 400" role="img">
<title>Mahlkönig X64 — Kvarn Sketch</title>
<defs>
<filter id="wc" x="-20%" y="-20%" width="140%" height="140%">
<feTurbulence type="fractalNoise" baseFrequency="0.9" numOctaves="2" result="n" seed="7"/>
<feDisplacementMap in="SourceGraphic" in2="n" scale="7"/>
</filter>
<filter id="ink" x="-10%" y="-10%" width="120%" height="120%">
<feTurbulence type="fractalNoise" baseFrequency="0.035" numOctaves="2" result="m" seed="11"/>
<feDisplacementMap in="SourceGraphic" in2="m" scale="4"/>
</filter>
</defs>
<rect width="400" height="400" fill="#F7F4EF"/><ellipse cx="234" cy="306" rx="131" ry="42" fill="#C0754D" opacity="0.09" filter="url(#wc)"/><circle cx="292" cy="101" r="39" fill="#C0754D" opacity="0.16" filter="url(#wc)"/><g filter="url(#wc)"><rect x="150" y="118" width="100" height="150" rx="16" fill="#3B2E28" opacity="0.32"/><rect x="170" y="88" width="60" height="30" rx="6" fill="#E7E0D5" opacity="0.5"/><rect x="160" y="176" width="30" height="20" rx="4" fill="#96A694" opacity="0.45"/><rect x="184" y="292" width="32" height="26" rx="6" fill="#E7E0D5" opacity="0.6"/></g><ellipse cx="200" cy="345" rx="75" ry="10" fill="#3B2E28" opacity="0.12" filter="url(#wc)"/><g filter="url(#ink)" fill="none" stroke="#3B2E28" stroke-width="2.3" stroke-linecap="round" stroke-linejoin="round"><rect x="150" y="118" width="100" height="150" rx="16"/><rect x="170" y="88" width="60" height="30" rx="6"/><path d="M170 88l30-10 30 10"/><rect x="160" y="176" width="30" height="20" rx="4"/><path d="M182 268v14h36v-14"/><rect x="184" y="292" width="32" height="26" rx="6"/><path d="M192 240h16" opacity="0.9"/><circle cx="170" cy="244" r="4"/></g><circle cx="323" cy="326" r="2.0" fill="#C0754D" opacity="0.42"/><circle cx="360" cy="298" r="2.4" fill="#C0754D" opacity="0.69"/><circle cx="322" cy="83" r="2.0" fill="#C0754D" opacity="0.49"/><circle cx="296" cy="216" r="1.4" fill="#C0754D" opacity="0.52"/><circle cx="107" cy="349" r="2.8" fill="#C0754D" opacity="0.53"/></svg>