<svg xmlns="http://www.w3.org/2000/svg" viewBox="0 0 400 400" role="img">
<title>Turin DF64 Gen 2 — Kvarn Sketch</title>
<defs>
<filter id="wc" x="-20%" y="-20%" width="140%" height="140%">
<feTurbulence type="fractalNoise" baseFrequency="0.9" numOctaves="2" result="n" seed="7"/>
<feDisplacementMap in="SourceGraphic" in2="n" scale="7"/>
</filter>
<filter id="ink" x="-10%" y="-10%" width="120%" height="120%">
<feTurbulence type="fractalNoise" baseFrequency="0.035" numOctaves="2" result="m" seed="11"/>
<feDisplacementMap in="SourceGraphic" in2="m" scale="4"/>
</filter>
</defs>
<rect width="400" height="400" fill="#F7F4EF"/><ellipse cx="180" cy="320" rx="128" ry="50" fill="#C0754D" opacity="0.09" filter="url(#wc)"/><circle cx="322" cy="82" r="41" fill="#C0754D" opacity="0.16" filter="url(#wc)"/><g filter="url(#wc)"><rect x="150" y="118" width="100" height="150" rx="16" fill="#E7E0D5" opacity="0.5"/><rect x="176" y="84" width="48" height="34" rx="8" fill="#C0754D" opacity="0.45"/><rect x="184" y="292" width="32" height="26" rx="6" fill="#E7E0D5" opacity="0.6"/></g><ellipse cx="200" cy="345" rx="75" ry="10" fill="#3B2E28" opacity="0.12" filter="url(#wc)"/><g filter="url(#ink)" fill="none" stroke="#3B2E28" stroke-width="2.3" stroke-linecap="round" stroke-linejoin="round"><rect x="150" y="118" width="100" height="150" rx="16"/><rect x="176" y="84" width="48" height="34" rx="8"/><path d="M176 95h48M176 106h48"/><path d="M150 150h100"/><path d="M158 143v5M174 143v5M190 143v5M206 143v5M222 143v5M238 143v5"/><path d="M182 268v14h36v-14"/><rect x="184" y="292" width="32" height="26" rx="6"/><path d="M192 240h16" opacity="0.9"/><circle cx="170" cy="244" r="4"/></g><circle cx="349" cy="192" r="2.8" fill="#C0754D" opacity="0.44"/><circle cx="300" cy="116" r="1.3" fill="#C0754D" opacity="0.6"/><circle cx="340" cy="304" r="1.7" fill="#C0754D" opacity="0.67"/><circle cx="346" cy="284" r="2.1" fill="#C0754D" opacity="0.58"/><circle cx="340" cy="278" r="2.7" fill="#C0754D" opacity="0.44"/></svg>