<svg xmlns="http://www.w3.org/2000/svg" viewBox="0 0 400 400" role="img">
<title>Fellow Ode Gen 2 — Kvarn Sketch</title>
<defs>
<filter id="wc" x="-20%" y="-20%" width="140%" height="140%">
<feTurbulence type="fractalNoise" baseFrequency="0.9" numOctaves="2" result="n" seed="7"/>
<feDisplacementMap in="SourceGraphic" in2="n" scale="7"/>
</filter>
<filter id="ink" x="-10%" y="-10%" width="120%" height="120%">
<feTurbulence type="fractalNoise" baseFrequency="0.035" numOctaves="2" result="m" seed="11"/>
<feDisplacementMap in="SourceGraphic" in2="m" scale="4"/>
</filter>
</defs>
<rect width="400" height="400" fill="#F7F4EF"/><ellipse cx="223" cy="309" rx="145" ry="48" fill="#C0754D" opacity="0.09" filter="url(#wc)"/><circle cx="109" cy="123" r="35" fill="#C0754D" opacity="0.16" filter="url(#wc)"/><g filter="url(#wc)"><rect x="120" y="170" width="160" height="90" rx="14" fill="#3B2E28" opacity="0.32"/><circle cx="280" cy="214" r="24" fill="#C0754D" opacity="0.5"/><rect x="176" y="262" width="48" height="30" rx="6" fill="#E7E0D5" opacity="0.6"/><rect x="178" y="156" width="44" height="16" rx="4" fill="#E7E0D5" opacity="0.5"/></g><ellipse cx="200" cy="345" rx="95" ry="10" fill="#3B2E28" opacity="0.12" filter="url(#wc)"/><g filter="url(#ink)" fill="none" stroke="#3B2E28" stroke-width="2.3" stroke-linecap="round" stroke-linejoin="round"><rect x="120" y="170" width="160" height="90" rx="14"/><circle cx="280" cy="214" r="24"/><path d="M280 196v10"/><path d="M268 202l6 6M292 202l6 6"/><rect x="178" y="156" width="44" height="16" rx="4"/><rect x="176" y="262" width="48" height="30" rx="6"/><path d="M188 260v-6h24v6"/><circle cx="148" cy="214" r="6"/></g><circle cx="103" cy="295" r="2.5" fill="#C0754D" opacity="0.57"/><circle cx="60" cy="261" r="2.0" fill="#C0754D" opacity="0.69"/><circle cx="154" cy="348" r="2.8" fill="#C0754D" opacity="0.5"/><circle cx="63" cy="251" r="2.9" fill="#C0754D" opacity="0.54"/><circle cx="328" cy="341" r="3.0" fill="#C0754D" opacity="0.64"/></svg>