<svg xmlns="http://www.w3.org/2000/svg" viewBox="0 0 400 400" role="img">
<title>Comandante C40 MK4 — Kvarn Sketch</title>
<defs>
<filter id="wc" x="-20%" y="-20%" width="140%" height="140%">
<feTurbulence type="fractalNoise" baseFrequency="0.9" numOctaves="2" result="n" seed="7"/>
<feDisplacementMap in="SourceGraphic" in2="n" scale="7"/>
</filter>
<filter id="ink" x="-10%" y="-10%" width="120%" height="120%">
<feTurbulence type="fractalNoise" baseFrequency="0.035" numOctaves="2" result="m" seed="11"/>
<feDisplacementMap in="SourceGraphic" in2="m" scale="4"/>
</filter>
</defs>
<rect width="400" height="400" fill="#F7F4EF"/><ellipse cx="166" cy="298" rx="125" ry="50" fill="#C0754D" opacity="0.09" filter="url(#wc)"/><circle cx="302" cy="125" r="37" fill="#C0754D" opacity="0.16" filter="url(#wc)"/><g filter="url(#wc)"><rect x="174" y="96" width="52" height="154" rx="20" fill="#C0754D" opacity="0.42"/><rect x="172" y="84" width="56" height="14" rx="6" fill="#E7E0D5" opacity="0.55"/><rect x="180" y="250" width="40" height="52" rx="10" fill="#3B2E28" opacity="0.3"/><circle cx="292" cy="66" r="9" fill="#C0754D" opacity="0.55"/></g><ellipse cx="200" cy="345" rx="60" ry="10" fill="#3B2E28" opacity="0.12" filter="url(#wc)"/><g filter="url(#ink)" fill="none" stroke="#3B2E28" stroke-width="2.3" stroke-linecap="round" stroke-linejoin="round"><rect x="174" y="96" width="52" height="154" rx="20"/><rect x="172" y="84" width="56" height="14" rx="6"/><circle cx="200" cy="78" r="7"/><path d="M200 84c30-16 60-20 84-18"/><circle cx="292" cy="66" r="9"/><rect x="180" y="250" width="40" height="52" rx="10"/></g><circle cx="60" cy="92" r="2.4" fill="#C0754D" opacity="0.57"/><circle cx="60" cy="178" r="2.0" fill="#C0754D" opacity="0.42"/><circle cx="338" cy="157" r="2.5" fill="#C0754D" opacity="0.57"/><circle cx="60" cy="213" r="2.8" fill="#C0754D" opacity="0.56"/><circle cx="60" cy="103" r="2.1" fill="#C0754D" opacity="0.44"/></svg>