<svg xmlns="http://www.w3.org/2000/svg" viewBox="0 0 400 400" role="img">
<title>Lelit Bianca V3 — Kvarn Sketch</title>
<defs>
<filter id="wc" x="-20%" y="-20%" width="140%" height="140%">
<feTurbulence type="fractalNoise" baseFrequency="0.9" numOctaves="2" result="n" seed="7"/>
<feDisplacementMap in="SourceGraphic" in2="n" scale="7"/>
</filter>
<filter id="ink" x="-10%" y="-10%" width="120%" height="120%">
<feTurbulence type="fractalNoise" baseFrequency="0.035" numOctaves="2" result="m" seed="11"/>
<feDisplacementMap in="SourceGraphic" in2="m" scale="4"/>
</filter>
</defs>
<rect width="400" height="400" fill="#F7F4EF"/><ellipse cx="194" cy="315" rx="138" ry="48" fill="#C0754D" opacity="0.09" filter="url(#wc)"/><circle cx="305" cy="74" r="36" fill="#96A694" opacity="0.16" filter="url(#wc)"/><g filter="url(#wc)"><rect x="115" y="121" width="170" height="159" rx="10" fill="#E7E0D5" opacity="0.5"/><rect x="111" y="280" width="178" height="12" rx="4" fill="#3B2E28" opacity="0.28"/><rect x="292" y="130" width="26" height="100" rx="6" fill="#96A694" opacity="0.2"/><rect x="192" y="118" width="16" height="22" rx="4" fill="#C0754D" opacity="0.55"/><circle cx="160" cy="155" r="13" fill="#F7F4EF" opacity="0.7"/><circle cx="240" cy="155" r="13" fill="#F7F4EF" opacity="0.7"/><rect x="187" y="246" width="26" height="34" rx="5" fill="#E7E0D5" opacity="0.75"/><circle cx="132" cy="250" r="8" fill="#C0754D" opacity="0.5"/><circle cx="268" cy="250" r="8" fill="#C0754D" opacity="0.5"/></g><ellipse cx="200" cy="345" rx="105" ry="10" fill="#3B2E28" opacity="0.12" filter="url(#wc)"/><g filter="url(#ink)" fill="none" stroke="#3B2E28" stroke-width="2.3" stroke-linecap="round" stroke-linejoin="round"><rect x="115" y="121" width="170" height="159" rx="10"/><rect x="111" y="280" width="178" height="12" rx="4"/><rect x="292" y="130" width="26" height="100" rx="6"/><rect x="192" y="118" width="16" height="22" rx="4"/><circle cx="160" cy="155" r="13"/><path d="M160 153l6.5 5.8500000000000005"/><circle cx="240" cy="155" r="13"/><path d="M240 153l6.5 5.8500000000000005"/><rect x="187" y="246" width="26" height="34" rx="5"/><path d="M193 280v6M207 280v6"/><path d="M172 292h56l-6 16a24 10 0 01-44 0z"/><path d="M228 296l40 7l-1 5l-39 -6"/><path d="M191 314v9M209 314v9"/><path d="M277 260l26 34l4 10"/><circle cx="132" cy="250" r="8"/><path d="M128 250h8"/><circle cx="268" cy="250" r="8"/><path d="M264 250h8"/><path d="M133 112h134"/><path d="M135 119v-7"/><path d="M178 119v-7"/><path d="M221 119v-7"/><path d="M264 119v-7"/><rect x="130" y="306" width="140" height="14" rx="4"/><path d="M144 311h10"/><path d="M172 311h10"/><path d="M200 311h10"/><path d="M228 311h10"/></g><circle cx="97" cy="256" r="2.1" fill="#C0754D" opacity="0.53"/><circle cx="60" cy="218" r="2.2" fill="#C0754D" opacity="0.59"/><circle cx="60" cy="193" r="1.7" fill="#C0754D" opacity="0.66"/><circle cx="86" cy="71" r="2.2" fill="#C0754D" opacity="0.49"/><circle cx="188" cy="351" r="1.6" fill="#C0754D" opacity="0.56"/></svg>