<svg xmlns="http://www.w3.org/2000/svg" viewBox="0 0 400 400" role="img">
<title>Rocket Appartamento — Kvarn Sketch</title>
<defs>
<filter id="wc" x="-20%" y="-20%" width="140%" height="140%">
<feTurbulence type="fractalNoise" baseFrequency="0.9" numOctaves="2" result="n" seed="7"/>
<feDisplacementMap in="SourceGraphic" in2="n" scale="7"/>
</filter>
<filter id="ink" x="-10%" y="-10%" width="120%" height="120%">
<feTurbulence type="fractalNoise" baseFrequency="0.035" numOctaves="2" result="m" seed="11"/>
<feDisplacementMap in="SourceGraphic" in2="m" scale="4"/>
</filter>
</defs>
<rect width="400" height="400" fill="#F7F4EF"/><ellipse cx="223" cy="281" rx="137" ry="52" fill="#C0754D" opacity="0.09" filter="url(#wc)"/><circle cx="329" cy="84" r="41" fill="#C0754D" opacity="0.16" filter="url(#wc)"/><g filter="url(#wc)"><rect x="115" y="130" width="170" height="141" rx="10" fill="#E7E0D5" opacity="0.5"/><rect x="111" y="271" width="178" height="12" rx="4" fill="#3B2E28" opacity="0.28"/><circle cx="140" cy="150" r="5" fill="#C0754D" opacity="0.55"/><circle cx="154" cy="163" r="5" fill="#C0754D" opacity="0.55"/><circle cx="140" cy="176" r="5" fill="#C0754D" opacity="0.55"/><circle cx="154" cy="189" r="5" fill="#C0754D" opacity="0.55"/><circle cx="140" cy="202" r="5" fill="#C0754D" opacity="0.55"/><circle cx="178" cy="164" r="13" fill="#F7F4EF" opacity="0.7"/><rect x="187" y="237" width="26" height="34" rx="5" fill="#E7E0D5" opacity="0.75"/><circle cx="262" cy="230" r="8" fill="#C0754D" opacity="0.5"/></g><ellipse cx="200" cy="345" rx="105" ry="10" fill="#3B2E28" opacity="0.12" filter="url(#wc)"/><g filter="url(#ink)" fill="none" stroke="#3B2E28" stroke-width="2.3" stroke-linecap="round" stroke-linejoin="round"><rect x="115" y="130" width="170" height="141" rx="10"/><rect x="111" y="271" width="178" height="12" rx="4"/><circle cx="140" cy="150" r="5"/><circle cx="154" cy="163" r="5"/><circle cx="140" cy="176" r="5"/><circle cx="154" cy="189" r="5"/><circle cx="140" cy="202" r="5"/><circle cx="178" cy="164" r="13"/><path d="M178 162l6.5 5.8500000000000005"/><rect x="187" y="237" width="26" height="34" rx="5"/><path d="M193 271v6M207 271v6"/><path d="M172 283h56l-6 16a24 10 0 01-44 0z"/><path d="M228 287l40 7l-1 5l-39 -6"/><path d="M191 305v9M209 305v9"/><path d="M277 251l26 34l4 10"/><circle cx="262" cy="230" r="8"/><path d="M258 230h8"/><path d="M133 121h134"/><path d="M135 128v-7"/><path d="M178 128v-7"/><path d="M221 128v-7"/><path d="M264 128v-7"/><rect x="130" y="306" width="140" height="14" rx="4"/><path d="M144 311h10"/><path d="M172 311h10"/><path d="M200 311h10"/><path d="M228 311h10"/></g><circle cx="107" cy="56" r="1.6" fill="#C0754D" opacity="0.49"/><circle cx="78" cy="170" r="1.7" fill="#C0754D" opacity="0.52"/><circle cx="309" cy="204" r="1.7" fill="#C0754D" opacity="0.48"/><circle cx="117" cy="101" r="2.7" fill="#C0754D" opacity="0.44"/><circle cx="267" cy="339" r="2.8" fill="#C0754D" opacity="0.5"/></svg>