<svg xmlns="http://www.w3.org/2000/svg" viewBox="0 0 400 400" role="img">
<title>Sage Bambino Plus — Kvarn Sketch</title>
<defs>
<filter id="wc" x="-20%" y="-20%" width="140%" height="140%">
<feTurbulence type="fractalNoise" baseFrequency="0.9" numOctaves="2" result="n" seed="7"/>
<feDisplacementMap in="SourceGraphic" in2="n" scale="7"/>
</filter>
<filter id="ink" x="-10%" y="-10%" width="120%" height="120%">
<feTurbulence type="fractalNoise" baseFrequency="0.035" numOctaves="2" result="m" seed="11"/>
<feDisplacementMap in="SourceGraphic" in2="m" scale="4"/>
</filter>
</defs>
<rect width="400" height="400" fill="#F7F4EF"/><ellipse cx="174" cy="296" rx="111" ry="47" fill="#C0754D" opacity="0.09" filter="url(#wc)"/><circle cx="107" cy="103" r="41" fill="#C0754D" opacity="0.16" filter="url(#wc)"/><g filter="url(#wc)"><rect x="130" y="144" width="140" height="112" rx="10" fill="#E7E0D5" opacity="0.5"/><rect x="126" y="256" width="148" height="12" rx="4" fill="#3B2E28" opacity="0.28"/></g><ellipse cx="200" cy="345" rx="90" ry="10" fill="#3B2E28" opacity="0.12" filter="url(#wc)"/><g filter="url(#ink)" fill="none" stroke="#3B2E28" stroke-width="2.3" stroke-linecap="round" stroke-linejoin="round"><rect x="130" y="144" width="140" height="112" rx="10"/><rect x="126" y="256" width="148" height="12" rx="4"/><circle cx="172" cy="158" r="5"/><circle cx="190" cy="158" r="5"/><circle cx="208" cy="158" r="5"/><circle cx="226" cy="158" r="5"/><path d="M172 268h56l-6 16a24 10 0 01-44 0z"/><path d="M228 272l40 7l-1 5l-39 -6"/><path d="M191 290v9M209 290v9"/><path d="M262 236l26 34l4 10"/><rect x="145" y="306" width="110" height="14" rx="4"/><path d="M159 311h10"/><path d="M179 311h10"/><path d="M199 311h10"/><path d="M219 311h10"/></g><circle cx="340" cy="194" r="2.8" fill="#C0754D" opacity="0.54"/><circle cx="99" cy="317" r="2.5" fill="#C0754D" opacity="0.68"/><circle cx="352" cy="229" r="1.7" fill="#C0754D" opacity="0.49"/><circle cx="133" cy="348" r="2.7" fill="#C0754D" opacity="0.41"/><circle cx="180" cy="351" r="1.9" fill="#C0754D" opacity="0.69"/></svg>