<svg xmlns="http://www.w3.org/2000/svg" viewBox="0 0 400 400" role="img">
<title>Rancilio Silvia — Kvarn Sketch</title>
<defs>
<filter id="wc" x="-20%" y="-20%" width="140%" height="140%">
<feTurbulence type="fractalNoise" baseFrequency="0.9" numOctaves="2" result="n" seed="7"/>
<feDisplacementMap in="SourceGraphic" in2="n" scale="7"/>
</filter>
<filter id="ink" x="-10%" y="-10%" width="120%" height="120%">
<feTurbulence type="fractalNoise" baseFrequency="0.035" numOctaves="2" result="m" seed="11"/>
<feDisplacementMap in="SourceGraphic" in2="m" scale="4"/>
</filter>
</defs>
<rect width="400" height="400" fill="#F7F4EF"/><ellipse cx="176" cy="302" rx="134" ry="41" fill="#C0754D" opacity="0.09" filter="url(#wc)"/><circle cx="77" cy="125" r="42" fill="#C0754D" opacity="0.16" filter="url(#wc)"/><g filter="url(#wc)"><rect x="120" y="127" width="160" height="147" rx="10" fill="#E7E0D5" opacity="0.5"/><rect x="116" y="274" width="168" height="12" rx="4" fill="#3B2E28" opacity="0.28"/><rect x="116" y="130" width="168" height="14" rx="4" fill="#3B2E28" opacity="0.35"/><rect x="187" y="240" width="26" height="34" rx="5" fill="#E7E0D5" opacity="0.75"/><circle cx="262" cy="225" r="8" fill="#C0754D" opacity="0.5"/></g><ellipse cx="200" cy="345" rx="100" ry="10" fill="#3B2E28" opacity="0.12" filter="url(#wc)"/><g filter="url(#ink)" fill="none" stroke="#3B2E28" stroke-width="2.3" stroke-linecap="round" stroke-linejoin="round"><rect x="120" y="127" width="160" height="147" rx="10"/><rect x="116" y="274" width="168" height="12" rx="4"/><rect x="116" y="130" width="168" height="14" rx="4"/><rect x="134" y="143" width="16" height="10" rx="2"/><circle cx="160" cy="148" r="2.5"/><rect x="134" y="161" width="16" height="10" rx="2"/><circle cx="160" cy="166" r="2.5"/><rect x="134" y="179" width="16" height="10" rx="2"/><circle cx="160" cy="184" r="2.5"/><rect x="187" y="240" width="26" height="34" rx="5"/><path d="M193 274v6M207 274v6"/><path d="M172 286h56l-6 16a24 10 0 01-44 0z"/><path d="M228 290l40 7l-1 5l-39 -6"/><path d="M191 308v9M209 308v9"/><path d="M272 254l26 34l4 10"/><circle cx="262" cy="225" r="8"/><path d="M258 225h8"/><path d="M138 118h124"/><path d="M140 125v-7"/><path d="M180 125v-7"/><path d="M220 125v-7"/><path d="M260 125v-7"/><rect x="135" y="306" width="130" height="14" rx="4"/><path d="M149 311h10"/><path d="M174 311h10"/><path d="M199 311h10"/><path d="M224 311h10"/></g><circle cx="84" cy="52" r="2.0" fill="#C0754D" opacity="0.66"/><circle cx="45" cy="183" r="2.3" fill="#C0754D" opacity="0.7"/><circle cx="60" cy="244" r="2.8" fill="#C0754D" opacity="0.68"/><circle cx="60" cy="298" r="2.3" fill="#C0754D" opacity="0.55"/><circle cx="317" cy="261" r="2.6" fill="#C0754D" opacity="0.65"/></svg>