<svg xmlns="http://www.w3.org/2000/svg" viewBox="0 0 400 400" role="img">
<title>Profitec Go — Kvarn Sketch</title>
<defs>
<filter id="wc" x="-20%" y="-20%" width="140%" height="140%">
<feTurbulence type="fractalNoise" baseFrequency="0.9" numOctaves="2" result="n" seed="7"/>
<feDisplacementMap in="SourceGraphic" in2="n" scale="7"/>
</filter>
<filter id="ink" x="-10%" y="-10%" width="120%" height="120%">
<feTurbulence type="fractalNoise" baseFrequency="0.035" numOctaves="2" result="m" seed="11"/>
<feDisplacementMap in="SourceGraphic" in2="m" scale="4"/>
</filter>
</defs>
<rect width="400" height="400" fill="#F7F4EF"/><ellipse cx="191" cy="282" rx="117" ry="47" fill="#C0754D" opacity="0.09" filter="url(#wc)"/><circle cx="322" cy="76" r="37" fill="#C0754D" opacity="0.16" filter="url(#wc)"/><g filter="url(#wc)"><rect x="128" y="133" width="145" height="135" rx="10" fill="#E7E0D5" opacity="0.5"/><rect x="128" y="133" width="145" height="135" rx="10" fill="#96A694" opacity="0.28"/><rect x="124" y="268" width="153" height="12" rx="4" fill="#3B2E28" opacity="0.28"/><rect x="178" y="152" width="44" height="14" rx="4" fill="#F7F4EF" opacity="0.6"/><rect x="187" y="234" width="26" height="34" rx="5" fill="#E7E0D5" opacity="0.75"/><circle cx="254" cy="215" r="8" fill="#C0754D" opacity="0.5"/></g><ellipse cx="200" cy="345" rx="92" ry="10" fill="#3B2E28" opacity="0.12" filter="url(#wc)"/><g filter="url(#ink)" fill="none" stroke="#3B2E28" stroke-width="2.3" stroke-linecap="round" stroke-linejoin="round"><rect x="128" y="133" width="145" height="135" rx="10"/><rect x="124" y="268" width="153" height="12" rx="4"/><rect x="178" y="152" width="44" height="14" rx="4"/><circle cx="170" cy="159" r="3"/><circle cx="230" cy="159" r="3"/><rect x="187" y="234" width="26" height="34" rx="5"/><path d="M193 268v6M207 268v6"/><path d="M172 280h56l-6 16a24 10 0 01-44 0z"/><path d="M228 284l40 7l-1 5l-39 -6"/><path d="M191 302v9M209 302v9"/><path d="M265 248l26 34l4 10"/><circle cx="254" cy="215" r="8"/><path d="M250 215h8"/><path d="M146 124h109"/><path d="M148 131v-7"/><path d="M183 131v-7"/><path d="M218 131v-7"/><path d="M253 131v-7"/><rect x="143" y="306" width="115" height="14" rx="4"/><path d="M157 311h10"/><path d="M178 311h10"/><path d="M199 311h10"/><path d="M220 311h10"/></g><circle cx="194" cy="326" r="2.3" fill="#C0754D" opacity="0.53"/><circle cx="50" cy="60" r="1.9" fill="#C0754D" opacity="0.68"/><circle cx="60" cy="273" r="1.4" fill="#C0754D" opacity="0.68"/><circle cx="334" cy="185" r="2.7" fill="#C0754D" opacity="0.59"/><circle cx="340" cy="198" r="1.7" fill="#C0754D" opacity="0.67"/></svg>