<svg xmlns="http://www.w3.org/2000/svg" viewBox="0 0 400 400" role="img">
<title>La Marzocco Linea Micra — Kvarn Sketch</title>
<defs>
<filter id="wc" x="-20%" y="-20%" width="140%" height="140%">
<feTurbulence type="fractalNoise" baseFrequency="0.9" numOctaves="2" result="n" seed="7"/>
<feDisplacementMap in="SourceGraphic" in2="n" scale="7"/>
</filter>
<filter id="ink" x="-10%" y="-10%" width="120%" height="120%">
<feTurbulence type="fractalNoise" baseFrequency="0.035" numOctaves="2" result="m" seed="11"/>
<feDisplacementMap in="SourceGraphic" in2="m" scale="4"/>
</filter>
</defs>
<rect width="400" height="400" fill="#F7F4EF"/><ellipse cx="183" cy="285" rx="119" ry="48" fill="#C0754D" opacity="0.09" filter="url(#wc)"/><circle cx="318" cy="116" r="38" fill="#96A694" opacity="0.16" filter="url(#wc)"/><g filter="url(#wc)"><rect x="118" y="130" width="165" height="141" rx="10" fill="#E7E0D5" opacity="0.5"/><rect x="118" y="130" width="26" height="141" rx="10" fill="#C0754D" opacity="0.5"/><rect x="257" y="130" width="26" height="141" rx="10" fill="#C0754D" opacity="0.5"/><rect x="114" y="271" width="173" height="12" rx="4" fill="#3B2E28" opacity="0.28"/><rect x="187" y="237" width="26" height="34" rx="5" fill="#E7E0D5" opacity="0.75"/></g><ellipse cx="200" cy="345" rx="102" ry="10" fill="#3B2E28" opacity="0.12" filter="url(#wc)"/><g filter="url(#ink)" fill="none" stroke="#3B2E28" stroke-width="2.3" stroke-linecap="round" stroke-linejoin="round"><rect x="118" y="130" width="165" height="141" rx="10"/><rect x="114" y="271" width="173" height="12" rx="4"/><path d="M258 160l16 -14"/><circle cx="258" cy="160" r="4"/><rect x="187" y="237" width="26" height="34" rx="5"/><path d="M193 271v6M207 271v6"/><path d="M172 283h56l-6 16a24 10 0 01-44 0z"/><path d="M228 287l40 7l-1 5l-39 -6"/><path d="M191 305v9M209 305v9"/><path d="M275 251l26 34l4 10"/><path d="M136 121h129"/><path d="M138 128v-7"/><path d="M179 128v-7"/><path d="M220 128v-7"/><path d="M261 128v-7"/><rect x="133" y="306" width="135" height="14" rx="4"/><path d="M147 311h10"/><path d="M173 311h10"/><path d="M199 311h10"/><path d="M225 311h10"/></g><circle cx="279" cy="345" r="1.2" fill="#C0754D" opacity="0.47"/><circle cx="60" cy="130" r="2.2" fill="#C0754D" opacity="0.63"/><circle cx="60" cy="268" r="2.2" fill="#C0754D" opacity="0.41"/><circle cx="340" cy="142" r="1.4" fill="#C0754D" opacity="0.63"/><circle cx="349" cy="115" r="1.8" fill="#C0754D" opacity="0.48"/></svg>