<svg xmlns="http://www.w3.org/2000/svg" viewBox="0 0 400 400" role="img">
<title>Gaggia Classic Evo Pro — Kvarn Sketch</title>
<defs>
<filter id="wc" x="-20%" y="-20%" width="140%" height="140%">
<feTurbulence type="fractalNoise" baseFrequency="0.9" numOctaves="2" result="n" seed="7"/>
<feDisplacementMap in="SourceGraphic" in2="n" scale="7"/>
</filter>
<filter id="ink" x="-10%" y="-10%" width="120%" height="120%">
<feTurbulence type="fractalNoise" baseFrequency="0.035" numOctaves="2" result="m" seed="11"/>
<feDisplacementMap in="SourceGraphic" in2="m" scale="4"/>
</filter>
</defs>
<rect width="400" height="400" fill="#F7F4EF"/><ellipse cx="210" cy="290" rx="120" ry="43" fill="#C0754D" opacity="0.09" filter="url(#wc)"/><circle cx="311" cy="114" r="30" fill="#C0754D" opacity="0.16" filter="url(#wc)"/><g filter="url(#wc)"><rect x="120" y="136" width="160" height="129" rx="10" fill="#E7E0D5" opacity="0.5"/><rect x="116" y="265" width="168" height="12" rx="4" fill="#3B2E28" opacity="0.28"/><circle cx="200" cy="172" r="10" fill="#C0754D" opacity="0.55"/><rect x="187" y="231" width="26" height="34" rx="5" fill="#E7E0D5" opacity="0.75"/><circle cx="262" cy="220" r="8" fill="#C0754D" opacity="0.5"/></g><ellipse cx="200" cy="345" rx="100" ry="10" fill="#3B2E28" opacity="0.12" filter="url(#wc)"/><g filter="url(#ink)" fill="none" stroke="#3B2E28" stroke-width="2.3" stroke-linecap="round" stroke-linejoin="round"><rect x="120" y="136" width="160" height="129" rx="10"/><rect x="116" y="265" width="168" height="12" rx="4"/><circle cx="200" cy="172" r="10"/><rect x="142" y="148" width="14" height="9" rx="2"/><rect x="166" y="148" width="14" height="9" rx="2"/><rect x="190" y="148" width="14" height="9" rx="2"/><rect x="187" y="231" width="26" height="34" rx="5"/><path d="M193 265v6M207 265v6"/><path d="M172 277h56l-6 16a24 10 0 01-44 0z"/><path d="M228 281l40 7l-1 5l-39 -6"/><path d="M191 299v9M209 299v9"/><path d="M272 245l26 34l4 10"/><circle cx="262" cy="220" r="8"/><path d="M258 220h8"/><path d="M138 127h124"/><path d="M140 134v-7"/><path d="M180 134v-7"/><path d="M220 134v-7"/><path d="M260 134v-7"/><rect x="135" y="306" width="130" height="14" rx="4"/><path d="M149 311h10"/><path d="M174 311h10"/><path d="M199 311h10"/><path d="M224 311h10"/></g><circle cx="49" cy="197" r="2.1" fill="#C0754D" opacity="0.42"/><circle cx="54" cy="328" r="2.5" fill="#C0754D" opacity="0.52"/><circle cx="315" cy="111" r="1.9" fill="#C0754D" opacity="0.53"/><circle cx="340" cy="313" r="1.4" fill="#C0754D" opacity="0.66"/><circle cx="340" cy="303" r="1.3" fill="#C0754D" opacity="0.58"/></svg>