<svg xmlns="http://www.w3.org/2000/svg" viewBox="0 0 400 400" role="img">
<title>Lelit MaraX — Kvarn Sketch</title>
<defs>
<filter id="wc" x="-20%" y="-20%" width="140%" height="140%">
<feTurbulence type="fractalNoise" baseFrequency="0.9" numOctaves="2" result="n" seed="7"/>
<feDisplacementMap in="SourceGraphic" in2="n" scale="7"/>
</filter>
<filter id="ink" x="-10%" y="-10%" width="120%" height="120%">
<feTurbulence type="fractalNoise" baseFrequency="0.035" numOctaves="2" result="m" seed="11"/>
<feDisplacementMap in="SourceGraphic" in2="m" scale="4"/>
</filter>
</defs>
<rect width="400" height="400" fill="#F7F4EF"/><ellipse cx="230" cy="280" rx="112" ry="54" fill="#C0754D" opacity="0.09" filter="url(#wc)"/><circle cx="319" cy="121" r="31" fill="#C0754D" opacity="0.16" filter="url(#wc)"/><g filter="url(#wc)"><rect x="125" y="124" width="150" height="153" rx="10" fill="#E7E0D5" opacity="0.5"/><rect x="121" y="277" width="158" height="12" rx="4" fill="#3B2E28" opacity="0.28"/><circle cx="200" cy="158" r="13" fill="#F7F4EF" opacity="0.7"/><rect x="187" y="243" width="26" height="34" rx="5" fill="#E7E0D5" opacity="0.75"/><circle cx="140" cy="200" r="8" fill="#C0754D" opacity="0.5"/><circle cx="260" cy="200" r="8" fill="#C0754D" opacity="0.5"/></g><ellipse cx="200" cy="345" rx="95" ry="10" fill="#3B2E28" opacity="0.12" filter="url(#wc)"/><g filter="url(#ink)" fill="none" stroke="#3B2E28" stroke-width="2.3" stroke-linecap="round" stroke-linejoin="round"><rect x="125" y="124" width="150" height="153" rx="10"/><rect x="121" y="277" width="158" height="12" rx="4"/><circle cx="200" cy="158" r="13"/><path d="M200 156l6.5 5.8500000000000005"/><rect x="187" y="243" width="26" height="34" rx="5"/><path d="M193 277v6M207 277v6"/><path d="M172 289h56l-6 16a24 10 0 01-44 0z"/><path d="M228 293l40 7l-1 5l-39 -6"/><path d="M191 311v9M209 311v9"/><path d="M267 257l26 34l4 10"/><circle cx="140" cy="200" r="8"/><path d="M136 200h8"/><circle cx="260" cy="200" r="8"/><path d="M256 200h8"/><path d="M143 115h114"/><path d="M145 122v-7"/><path d="M181 122v-7"/><path d="M217 122v-7"/><path d="M253 122v-7"/><rect x="140" y="306" width="120" height="14" rx="4"/><path d="M154 311h10"/><path d="M177 311h10"/><path d="M200 311h10"/><path d="M223 311h10"/></g><circle cx="63" cy="293" r="1.4" fill="#C0754D" opacity="0.6"/><circle cx="340" cy="233" r="2.2" fill="#C0754D" opacity="0.42"/><circle cx="60" cy="167" r="2.5" fill="#C0754D" opacity="0.4"/><circle cx="326" cy="195" r="3.0" fill="#C0754D" opacity="0.61"/><circle cx="296" cy="155" r="2.8" fill="#C0754D" opacity="0.65"/></svg>