<svg xmlns="http://www.w3.org/2000/svg" viewBox="0 0 400 400" role="img">
<title>ECM Synchronika — Kvarn Sketch</title>
<defs>
<filter id="wc" x="-20%" y="-20%" width="140%" height="140%">
<feTurbulence type="fractalNoise" baseFrequency="0.9" numOctaves="2" result="n" seed="7"/>
<feDisplacementMap in="SourceGraphic" in2="n" scale="7"/>
</filter>
<filter id="ink" x="-10%" y="-10%" width="120%" height="120%">
<feTurbulence type="fractalNoise" baseFrequency="0.035" numOctaves="2" result="m" seed="11"/>
<feDisplacementMap in="SourceGraphic" in2="m" scale="4"/>
</filter>
</defs>
<rect width="400" height="400" fill="#F7F4EF"/><ellipse cx="186" cy="309" rx="110" ry="46" fill="#C0754D" opacity="0.09" filter="url(#wc)"/><circle cx="329" cy="92" r="34" fill="#C0754D" opacity="0.16" filter="url(#wc)"/><g filter="url(#wc)"><rect x="103" y="118" width="195" height="165" rx="10" fill="#E7E0D5" opacity="0.5"/><rect x="99" y="283" width="203" height="12" rx="4" fill="#3B2E28" opacity="0.28"/><circle cx="168" cy="152" r="13" fill="#F7F4EF" opacity="0.7"/><circle cx="232" cy="152" r="13" fill="#F7F4EF" opacity="0.7"/><rect x="187" y="249" width="26" height="34" rx="5" fill="#E7E0D5" opacity="0.75"/><circle cx="124" cy="240" r="8" fill="#C0754D" opacity="0.5"/><circle cx="276" cy="240" r="8" fill="#C0754D" opacity="0.5"/></g><ellipse cx="200" cy="345" rx="117" ry="10" fill="#3B2E28" opacity="0.12" filter="url(#wc)"/><g filter="url(#ink)" fill="none" stroke="#3B2E28" stroke-width="2.3" stroke-linecap="round" stroke-linejoin="round"><rect x="103" y="118" width="195" height="165" rx="10"/><rect x="99" y="283" width="203" height="12" rx="4"/><circle cx="168" cy="152" r="13"/><path d="M168 150l6.5 5.8500000000000005"/><circle cx="232" cy="152" r="13"/><path d="M232 150l6.5 5.8500000000000005"/><rect x="187" y="249" width="26" height="34" rx="5"/><path d="M193 283v6M207 283v6"/><path d="M172 295h56l-6 16a24 10 0 01-44 0z"/><path d="M228 299l40 7l-1 5l-39 -6"/><path d="M191 317v9M209 317v9"/><path d="M290 263l26 34l4 10"/><circle cx="124" cy="240" r="8"/><path d="M120 240h8"/><circle cx="276" cy="240" r="8"/><path d="M272 240h8"/><path d="M121 109h159"/><path d="M123 116v-7"/><path d="M174 116v-7"/><path d="M225 116v-7"/><path d="M276 116v-7"/><rect x="118" y="306" width="165" height="14" rx="4"/><path d="M132 311h10"/><path d="M166 311h10"/><path d="M200 311h10"/><path d="M234 311h10"/></g><circle cx="340" cy="288" r="2.8" fill="#C0754D" opacity="0.43"/><circle cx="168" cy="324" r="2.6" fill="#C0754D" opacity="0.67"/><circle cx="331" cy="268" r="1.3" fill="#C0754D" opacity="0.66"/><circle cx="340" cy="207" r="2.2" fill="#C0754D" opacity="0.52"/><circle cx="328" cy="83" r="2.8" fill="#C0754D" opacity="0.63"/></svg>